<svg width="48" height="48" viewBox="0 0 48 48" fill="none" xmlns="http://www.w3.org/2000/svg">
<path fill-rule="evenodd" clip-rule="evenodd" d="M12 0V4H16H20H24H28H32H36V0H32H28H24H20H16H12ZM36 4V8H40V4H36ZM40 8V12H44V8H40ZM44 12V16V20V24V28V32V36H48V32V28V24V20V16V12H44ZM44 36H40V40H44V36ZM40 40H36V44H40V40ZM36 44H32H28H24H20H16H12V48H16H20H24H28H32H36V44ZM12 44V40H8V44H12ZM8 40V36H4V40H8ZM4 36V32V28V24V20V16V12H0V16V20V24V28V32V36H4ZM4 12H8V8H4V12ZM8 8H12V4H8V8ZM24 8V12V16H28H32V12V8H28H24ZM24 16H20H16V20H20H24V16ZM16 20H12H8V24V28H12H16V24V20ZM16 28V32H20H24V28H20H16ZM24 32V36V40H28H32V36V32H28H24Z" fill="white"/>
</svg>
