<svg width="164" height="26" viewBox="0 0 164 26" fill="none" xmlns="http://www.w3.org/2000/svg">
<g clip-path="url(#clip0_636_6986)">
<path d="M108.63 4.2998H104.35V12.8698H108.63V4.2998Z" fill="#262626"/>
<path d="M108.63 17.1401H104.35V25.7301H108.63V17.1401Z" fill="#262626"/>
<path d="M117.171 12.8701H108.631V17.1401H117.171V12.8701Z" fill="#262626"/>
<path d="M104.351 12.8701H95.8105V17.1401H104.351V12.8701Z" fill="#262626"/>
<g style="mix-blend-mode:screen">
<path d="M108.63 12.8701H104.35V17.1401H108.63V12.8701Z" fill="#8E9095"/>
</g>
<path d="M108.63 12.8701H104.35V17.1401H108.63V12.8701Z" fill="#464646"/>
<path d="M117.17 0V12.89H134.24V17.14H117.17V21.43H138.52V8.59H121.44V4.3H159.06V8.59H146.27V12.89H159.06V17.14H141.99V21.43H163.34V0H117.17Z" fill="#BFC0C1"/>
<path d="M21.35 21.43H0V0H21.35V4.3H4.28V17.14H21.35V21.43Z" fill="#BFC0C1"/>
<path d="M46.1703 21.43H24.8203V0H29.0903V17.14H41.8903V0H46.1703V21.43Z" fill="#BFC0C1"/>
<path d="M70.9906 4.3H53.9206V21.43H49.6406V0H70.9906V4.3Z" fill="#BFC0C1"/>
<path d="M78.7409 12.89V8.59V6.97V4.3H91.5409V8.59H82.2109V12.89H95.8109V0H74.4609V21.43H95.8109V17.14H78.7409V13.92V12.89Z" fill="#BFC0C1"/>
</g>
<defs>
<clipPath id="clip0_636_6986">
<rect width="163.34" height="25.73" fill="white"/>
</clipPath>
</defs>
</svg>
