<svg width="20" height="20" viewBox="0 0 20 20" fill="none" xmlns="http://www.w3.org/2000/svg">
<g clip-path="url(#clip0_637_7003)">
<path d="M9.97 0C4.457 0 0 4.583 0 10.254C0 14.786 2.856 18.623 6.817 19.981C7.313 20.083 7.494 19.76 7.494 19.489C7.494 19.251 7.478 18.436 7.478 17.587C4.704 18.198 4.127 16.365 4.127 16.365C3.681 15.176 3.021 14.871 3.021 14.871C2.113 14.243 3.087 14.243 3.087 14.243C4.094 14.311 4.622 15.295 4.622 15.295C5.513 16.857 6.949 16.416 7.527 16.144C7.61 15.482 7.874 15.024 8.154 14.769C5.942 14.531 3.615 13.649 3.615 9.71C3.615 8.59 4.011 7.673 4.638 6.96C4.539 6.706 4.193 5.653 4.738 4.244C4.738 4.244 5.579 3.972 7.478 5.296C8.29 5.072 9.128 4.958 9.97 4.957C10.812 4.957 11.67 5.076 12.463 5.296C14.361 3.972 15.203 4.244 15.203 4.244C15.748 5.653 15.401 6.706 15.302 6.96C15.946 7.673 16.325 8.59 16.325 9.71C16.325 13.649 13.998 14.514 11.769 14.769C12.133 15.092 12.446 15.703 12.446 16.67C12.446 18.045 12.43 19.149 12.43 19.488C12.43 19.76 12.611 20.083 13.107 19.981C17.068 18.623 19.924 14.786 19.924 10.254C19.94 4.583 15.467 0 9.97 0Z" fill="white"/>
</g>
<defs>
<clipPath id="clip0_637_7003">
<rect width="20" height="20" fill="white"/>
</clipPath>
</defs>
</svg>
