<svg width="31" height="31" viewBox="0 0 31 31" fill="none" xmlns="http://www.w3.org/2000/svg">
<path fill-rule="evenodd" clip-rule="evenodd" d="M7.62667 0V2.54215H22.88V0H7.62667ZM22.88 2.54215V5.08452H25.4222V2.54215H22.88ZM25.4222 5.08452V7.62667H27.9645V5.08452H25.4222ZM27.9645 7.62667V22.88H30.5067V7.62667H27.9645ZM27.9645 22.88H25.4222V25.4224H27.9645V22.88ZM25.4222 25.4224H22.88V27.9645H25.4222V25.4224ZM22.88 27.9645H7.62667V30.5069H22.88V27.9645ZM7.62667 27.9645V25.4224H5.0843V27.9645H7.62667ZM5.0843 25.4224V22.88H2.54215V25.4224H5.0843ZM2.54215 22.88V7.62667H0V22.88H2.54215ZM2.54215 7.62667H5.0843V5.08452H2.54215V7.62667ZM5.0843 5.08452H7.62667V2.54215H5.0843V5.08452Z" fill="white" style="fill:white;fill-opacity:1;"/>
<path d="M15.3333 14.4926L14.3904 13.0131L15.8699 12.0702L14.927 10.5906L16.4066 9.64771L14.5204 6.68798L13.0408 7.63089L12.0979 6.15134L7.65862 8.98048L8.60153 10.46L7.11943 11.4046L9.00566 14.3643L10.4878 13.4198L11.4307 14.8993L12.9102 13.9564L19.5114 24.3145L22.4711 22.4283L21.5282 20.9487L23.0078 20.0058L22.0645 18.5256L19.1054 20.4114L18.1625 18.9319L19.642 17.989L18.6991 16.5094L17.2195 17.4524L15.3333 14.4926ZM11.5613 8.5738L12.5046 10.054L11.0244 10.9973L10.0811 9.51712L11.5613 8.5738Z" fill="white" style="fill:white;fill-opacity:1;"/>
</svg>
