<svg width="361" height="92" viewBox="0 0 361 92" fill="none" xmlns="http://www.w3.org/2000/svg">
<path d="M45.9387 71H4.58758V6.64817H41.3511V11.2672H45.9387V15.8548H50.5262V34.2365H45.9387V38.8241H50.5262V43.4431H55.1452V61.8248H50.5262V66.4124H45.9387V71ZM13.7627 34.2365H36.7635V29.6489H41.3511V20.4423H36.7635V15.8548H13.7627V34.2365ZM13.7627 61.8248H41.3511V57.2373H45.9387V48.0307H41.3511V43.4431H13.7627V61.8248ZM73.4641 18.1485H64.289V8.97338H73.4641V18.1485ZM73.4641 71H64.289V25.0613H73.4641V71ZM105.609 71H91.8145V66.4124H87.2269V31.9427H80.3455V25.0613H87.2269V11.2672H96.4335V25.0613H105.609V31.9427H96.4335V61.8248H105.609V71ZM121.728 71H112.553V6.64817H126.316V15.8548H130.935V25.0613H135.522V34.2365H140.11V43.4431H144.729V52.6183H149.316V6.64817H158.492V71H144.729V61.8248H140.11V52.6183H135.522V43.4431H130.935V34.2365H126.316V25.0613H121.728V71ZM199.905 71H176.905V66.4124H172.317V61.8248H167.73V34.2365H172.317V29.6489H176.905V25.0613H199.905V29.6489H204.493V34.2365H209.081V61.8248H204.493V66.4124H199.905V71ZM181.492 61.8248H195.286V57.2373H199.905V38.8241H195.286V34.2365H181.492V38.8241H176.905V57.2373H181.492V61.8248ZM238.963 71H225.169V66.4124H220.581V31.9427H213.7V25.0613H220.581V11.2672H229.788V25.0613H238.963V31.9427H229.788V61.8248H238.963V71ZM278.083 71H255.082V66.4124H250.495V61.8248H245.907V34.2365H250.495V29.6489H255.082V25.0613H278.083V29.6489H282.67V34.2365H287.258V50.3245H255.082V57.2373H259.67V61.8248H273.464V57.2373H287.258V61.8248H282.67V66.4124H278.083V71ZM255.082 43.4431H278.083V38.8241H273.464V34.2365H259.67V38.8241H255.082V43.4431Z" fill="white"/>
<path fill-rule="evenodd" clip-rule="evenodd" d="M320.16 14.1065V18.6041H347.147V14.1065H320.16ZM347.147 18.6041V23.1022H351.644V18.6041H347.147ZM351.644 23.1022V27.5998H356.142V23.1022H351.644ZM356.142 27.5998V54.5865H360.64V27.5998H356.142ZM356.142 54.5865H351.644V59.0845H356.142V54.5865ZM351.644 59.0845H347.147V63.5822H351.644V59.0845ZM347.147 63.5822H320.16V68.0802H347.147V63.5822ZM320.16 63.5822V59.0845H315.662V63.5822H320.16ZM315.662 59.0845V54.5865H311.164V59.0845H315.662ZM311.164 54.5865V27.5998H306.667V54.5865H311.164ZM311.164 27.5998H315.662V23.1022H311.164V27.5998ZM315.662 23.1022H320.16V18.6041H315.662V23.1022ZM329.155 23.1022V27.5998H338.151V23.1022H329.155ZM338.151 27.5998V36.5956H329.155V27.5998H324.657V36.5956H320.16V54.5864H347.146V36.5956H342.649V27.5998H338.151Z" fill="white"/>
</svg>
