<svg width="735" height="735" viewBox="0 0 735 735" fill="none" xmlns="http://www.w3.org/2000/svg">
<path fill-rule="evenodd" clip-rule="evenodd" d="M183.525 0V61.1749H244.699H305.874H367.049H428.224H489.399H550.574V0H489.399H428.224H367.049H305.874H244.699H183.525ZM550.574 61.1749V122.35H611.749V61.1749H550.574ZM611.749 122.35V183.525H672.923V122.35H611.749ZM672.923 183.525V244.699V305.874V367.049V428.224V489.399V550.574H734.098V489.399V428.224V367.049V305.874V244.699V183.525H672.923ZM672.923 550.574H611.749V611.749H672.923V550.574ZM611.749 611.749H550.574V672.923H611.749V611.749ZM550.574 672.923H489.399H428.224H367.049H305.874H244.699H183.525V734.098H244.699H305.874H367.049H428.224H489.399H550.574V672.923ZM183.525 672.923V611.749H122.35V672.923H183.525ZM122.35 611.749V550.574H61.1749V611.749H122.35ZM61.1749 550.574V489.399V428.224V367.049V305.874V244.699V183.525H0V244.699V305.874V367.049V428.224V489.399V550.574H61.1749ZM61.1749 183.525H122.35V122.35H61.1749V183.525ZM122.35 122.35H183.525V61.1749H122.35V122.35ZM244.699 122.35V183.525H305.874H367.049H428.224H489.399V122.35H428.224H367.049H305.874H244.699ZM489.399 183.525V244.699V305.874V367.049V428.224V489.399V550.574H550.574V489.399V428.224V367.049V305.874V244.699V183.525H489.399ZM489.399 550.574H428.224V489.399H367.049H305.874V550.574H244.699V611.749H305.874H367.049H428.224H489.399V550.574ZM244.699 550.574V489.399V428.224V367.049V305.874V244.699V183.525H183.525V244.699V305.874V367.049V428.224V489.399V550.574H244.699Z" fill="white"/>
</svg>
