<svg width="91" height="91" viewBox="0 0 91 91" fill="none" xmlns="http://www.w3.org/2000/svg">
<path fill-rule="evenodd" clip-rule="evenodd" d="M23.2969 0.389923V7.88992H30.7969H38.2969H45.7969H53.2969H60.7969H68.2969V0.389923H60.7969H53.2969H45.7969H38.2969H30.7969H23.2969ZM68.2969 7.88992V15.3899H75.7969V7.88992H68.2969ZM75.7969 15.3899V22.8899H83.2969V15.3899H75.7969ZM83.2969 22.8899V30.3899V37.8899V45.3899V52.8899V60.3899V67.8899H90.7969V60.3899V52.8899V45.3899V37.8899V30.3899V22.8899H83.2969ZM83.2969 67.8899H75.7969V75.3899H83.2969V67.8899ZM75.7969 75.3899H68.2969V82.8899H75.7969V75.3899ZM68.2969 82.8899H60.7969H53.2969H45.7969H38.2969H30.7969H23.2969V90.3899H30.7969H38.2969H45.7969H53.2969H60.7969H68.2969V82.8899ZM23.2969 82.8899V75.3899H15.7969V82.8899H23.2969ZM15.7969 75.3899V67.8899H8.29688V75.3899H15.7969ZM8.29688 67.8899V60.3899V52.8899V45.3899V37.8899V30.3899V22.8899H0.796875V30.3899V37.8899V45.3899V52.8899V60.3899V67.8899H8.29688ZM8.29688 22.8899H15.7969V15.3899H8.29688V22.8899ZM15.7969 15.3899H23.2969V7.88992H15.7969V15.3899ZM30.7969 22.8899V30.3899V37.8899V45.3899V52.8899H23.2969V60.3899V67.8899H30.7969H38.2969H45.7969H53.2969H60.7969H68.2969V60.3899V52.8899H60.7969V45.3899V37.8899V30.3899V22.8899H53.2969H45.7969H38.2969H30.7969ZM38.2969 30.3899H45.7969H53.2969V37.8899V45.3899H45.7969H38.2969V37.8899V30.3899Z" fill="white"/>
</svg>
