<svg width="1132" height="1132" viewBox="0 0 1132 1132" fill="none" xmlns="http://www.w3.org/2000/svg">
<path d="M282.991 0V94.3303H848.973V0H282.991ZM848.973 94.3303V188.661H943.303V94.3303H848.973ZM943.303 188.661V282.991H1037.63V188.661H943.303ZM1037.63 282.991V848.973H1131.96V282.991H1037.63ZM1037.63 848.973H943.303V943.303H1037.63V848.973ZM943.303 943.303H848.973V1037.63H943.303V943.303ZM848.973 1037.63H282.991V1131.96H848.973V1037.63ZM282.991 1037.63V943.303H188.661V1037.63H282.991ZM188.661 943.303V848.973H94.3303V943.303H188.661ZM94.3303 848.973V282.991H0V848.973H94.3303ZM94.3303 282.991H188.661V188.661H94.3303V282.991ZM188.661 188.661H282.991V94.3303H188.661V188.661ZM471.652 282.991V565.982H282.991V660.312H377.321V754.643H471.652V848.973H660.312V754.643H754.643V660.312H848.973V565.982H660.312V282.991H471.652Z" fill="white"/>
</svg>
