<svg width="630" height="630" viewBox="0 0 630 630" fill="none" xmlns="http://www.w3.org/2000/svg">
<path d="M157.5 0V52.5H472.5V0H157.5ZM472.5 52.5V105H525V52.5H472.5ZM525 105V157.5H577.5V105H525ZM577.5 157.5V472.5H630V157.5H577.5ZM577.5 472.5H525V525H577.5V472.5ZM525 525H472.5V577.5H525V525ZM472.5 577.5H157.5V630H472.5V577.5ZM157.5 577.5V525H105V577.5H157.5ZM105 525V472.5H52.5V525H105ZM52.5 472.5V157.5H0V472.5H52.5ZM52.5 157.5H105V105H52.5V157.5ZM105 105H157.5V52.5H105V105ZM262.5 157.5V210H367.5V157.5H262.5ZM367.5 210V262.5H315V315H472.5V157.5H420V210H367.5ZM262.5 210H210V262.5H262.5V210ZM210 262.5H157.5V367.5H210V262.5ZM210 367.5V420H262.5V367.5H210ZM262.5 420V472.5H367.5V420H262.5ZM367.5 420H420V367.5H367.5V420Z" fill="white"/>
</svg>
