<svg width="739" height="739" viewBox="0 0 739 739" fill="none" xmlns="http://www.w3.org/2000/svg">
<path fill-rule="evenodd" clip-rule="evenodd" d="M184.613 0V61.536H553.84V0H184.613ZM553.84 61.536V123.077H615.376V61.536H553.84ZM615.376 123.077V184.613H676.917V123.077H615.376ZM676.917 184.613V553.84H738.453V184.613H676.917ZM676.917 553.84H615.376V615.381H676.917V553.84ZM615.376 615.381H553.84V676.917H615.376V615.381ZM553.84 676.917H184.613V738.459H553.84V676.917ZM184.613 676.917V615.381H123.072V676.917H184.613ZM123.072 615.381V553.84H61.536V615.381H123.072ZM61.536 553.84V184.613H0V553.84H61.536ZM61.536 184.613H123.072V123.077H61.536V184.613ZM123.072 123.077H184.613V61.536H123.072V123.077ZM307.685 123.077V184.613H430.759V123.077H307.685ZM430.759 184.613V307.692H307.685V184.613H246.144V307.692H184.608V553.839H553.835V307.692H492.299V184.613H430.759Z" fill="white"/>
</svg>
