<svg width="91" height="91" viewBox="0 0 91 91" fill="none" xmlns="http://www.w3.org/2000/svg">
<path fill-rule="evenodd" clip-rule="evenodd" d="M23.4229 0.455078V7.95508H30.9229H38.4229H45.9229H53.4229H60.9229H68.4229V0.455078H60.9229H53.4229H45.9229H38.4229H30.9229H23.4229ZM68.4229 7.95508V15.4551H75.9229V7.95508H68.4229ZM75.9229 15.4551V22.9551H83.4229V15.4551H75.9229ZM83.4229 22.9551V30.4551V37.9551V45.4551V52.9551V60.4551V67.9551H90.9229V60.4551V52.9551V45.4551V37.9551V30.4551V22.9551H83.4229ZM83.4229 67.9551H75.9229V75.4551H83.4229V67.9551ZM75.9229 75.4551H68.4229V82.9551H75.9229V75.4551ZM68.4229 82.9551H60.9229H53.4229H45.9229H38.4229H30.9229H23.4229V90.4551H30.9229H38.4229H45.9229H53.4229H60.9229H68.4229V82.9551ZM23.4229 82.9551V75.4551H15.9229V82.9551H23.4229ZM15.9229 75.4551V67.9551H8.42285V75.4551H15.9229ZM8.42285 67.9551V60.4551V52.9551V45.4551V37.9551V30.4551V22.9551H0.922852V30.4551V37.9551V45.4551V52.9551V60.4551V67.9551H8.42285ZM8.42285 22.9551H15.9229V15.4551H8.42285V22.9551ZM15.9229 15.4551H23.4229V7.95508H15.9229V15.4551ZM30.9229 15.4551V22.9551H38.4229H45.9229H53.4229H60.9229V15.4551H53.4229H45.9229H38.4229H30.9229ZM60.9229 22.9551V30.4551H68.4229V22.9551H60.9229ZM68.4229 30.4551V37.9551V45.4551V52.9551V60.4551H75.9229V52.9551V45.4551V37.9551V30.4551H68.4229ZM68.4229 60.4551H60.9229V67.9551H68.4229V60.4551ZM60.9229 67.9551H53.4229H45.9229H38.4229H30.9229V75.4551H38.4229H45.9229H53.4229H60.9229V67.9551ZM30.9229 67.9551V60.4551H23.4229V67.9551H30.9229ZM23.4229 60.4551V52.9551V45.4551V37.9551V30.4551H15.9229V37.9551V45.4551V52.9551V60.4551H23.4229ZM23.4229 30.4551H30.9229V22.9551H23.4229V30.4551ZM38.4229 30.4551V37.9551V45.4551V52.9551H45.9229H53.4229H60.9229V45.4551H53.4229H45.9229V37.9551V30.4551H38.4229Z" fill="white"/>
</svg>
