<svg width="735" height="735" viewBox="0 0 735 735" fill="none" xmlns="http://www.w3.org/2000/svg">
<path fill-rule="evenodd" clip-rule="evenodd" d="M183.529 0V61.1749H122.355V122.35H61.1797V183.525H0.00488281V244.699V305.874V367.049V428.224V489.399V550.574H61.1797V611.749H122.355V672.924H183.529V734.098H244.704H305.879H367.054H428.229H489.404H550.579V672.924H611.754V611.749H672.928V550.574H734.103V489.399V428.224V367.049V305.874V244.699V183.525H672.928V122.35H611.754V61.1749H550.579V0H489.404H428.229H367.054H305.879H244.704H183.529ZM550.579 61.1749V122.35H611.754V183.525H672.928V244.699V305.874V367.049V428.224V489.399V550.574H611.754V611.749H550.579V672.924H489.404H428.229H367.054H305.879H244.704H183.529V611.749H122.355V550.574H61.1797V489.399V428.224V367.049V305.874V244.699V183.525H122.355V122.35H183.529V61.1749H244.704H305.879H367.054H428.229H489.404H550.579ZM553.997 263.141V193.575H414.8V124H345.197V193.575H275.603V263.141H206V332.716H211V333.716H275.603V402.283H345.197V468.858H211V471.858H206V541.433H345.197V611H414.8V541.433H484.394L484.397 471.859H554V402.284H549V401.284H484.397L484.394 332.717H414.8V266.141H548.997V263.141H553.997ZM414.8 468.858V402.283L481.397 402.284V468.859L414.8 468.858ZM484.397 468.859V471.859L481.397 471.859L481.397 468.859H484.397ZM345.197 266.141V332.717L278.602 332.716V266.141L345.197 266.141ZM278.602 263.141L275.603 263.141V266.141H278.602V263.141Z" fill="white"/>
</svg>
