<svg width="740" height="739" viewBox="0 0 740 739" fill="none" xmlns="http://www.w3.org/2000/svg">
<path fill-rule="evenodd" clip-rule="evenodd" d="M185.405 0.197876V61.7392H554.645V0.197876H185.405ZM554.645 61.7392V123.275H616.181V61.7392H554.645ZM616.181 123.275V184.811H677.717V123.275H616.181ZM677.717 184.811V554.051H739.259V184.811H677.717ZM677.717 554.051H616.181V615.587H677.717V554.051ZM616.181 615.587H554.645V677.123H616.181V615.587ZM554.645 677.123H185.405V738.665H554.645V677.123ZM185.405 677.123V615.587H123.869V677.123H185.405ZM123.869 615.587V554.051H62.3333V615.587H123.869ZM62.3333 554.051V184.811H0.791992V554.051H62.3333ZM62.3333 184.811H123.869V123.275H62.3333V184.811ZM123.869 123.275H185.405V61.7392H123.869V123.275ZM246.948 184.811V246.353H185.407V307.889H246.948V554.049H308.484V307.889H370.02V246.353H308.484V184.811H246.948ZM431.561 184.811V430.971H370.02V492.507H431.561V554.049H493.097V492.507H554.639V430.971H493.097V184.811H431.561Z" fill="white"/>
</svg>
