<svg width="739" height="739" viewBox="0 0 739 739" fill="none" xmlns="http://www.w3.org/2000/svg">
<path fill-rule="evenodd" clip-rule="evenodd" d="M184.619 0V61.536H553.845V0H184.619ZM553.845 61.536V123.077H615.381V61.536H553.845ZM615.381 123.077V184.613H676.923V123.077H615.381ZM676.923 184.613V553.84H738.459V184.613H676.923ZM676.923 553.84H615.381V615.381H676.923V553.84ZM615.381 615.381H553.845V676.917H615.381V615.381ZM553.845 676.917H184.619V738.459H553.845V676.917ZM184.619 676.917V615.381H123.077V676.917H184.619ZM123.077 615.381V553.84H61.5413V615.381H123.077ZM61.5413 553.84V184.613H0V553.84H61.5413ZM61.5413 184.613H123.077V123.077H61.5413V184.613ZM123.077 123.077H184.619V61.536H123.077V123.077ZM184.619 184.613V246.149H123.077V430.763H184.619V492.299H246.155V553.835H307.691V615.376H430.769V553.835H492.305V492.299H553.847V430.763H615.383V246.149H553.847V184.613H430.768V246.149H307.689V184.613H184.619Z" fill="white"/>
</svg>
