<svg width="739" height="739" viewBox="0 0 739 739" fill="none" xmlns="http://www.w3.org/2000/svg">
<path fill-rule="evenodd" clip-rule="evenodd" d="M185.099 0.411499V61.9475H554.325V0.411499H185.099ZM554.325 61.9475V123.484H615.867V61.9475H554.325ZM615.867 123.484V185.025H677.403V123.484H615.867ZM677.403 185.025V554.252H738.944V185.025H677.403ZM677.403 554.252H615.867V615.793H677.403V554.252ZM615.867 615.793H554.325V677.329H615.867V615.793ZM554.325 677.329H185.099V738.865H554.325V677.329ZM185.099 677.329V615.793H123.563V677.329H185.099ZM123.563 615.793V554.252H62.0214V615.793H123.563ZM62.0214 554.252V185.025H0.485352V554.252H62.0214ZM62.0214 185.025H123.563V123.484H62.0214V185.025ZM123.563 123.484H185.099V61.9475H123.563V123.484ZM246.636 185.025V246.561H308.177V185.025H246.636ZM246.636 246.561H185.1V308.102H246.636V246.561ZM185.1 308.102H123.564V431.176H185.1V308.102ZM185.1 431.176V492.717H246.636V431.176H185.1ZM246.636 492.717V554.253H308.177V492.717H246.636ZM431.249 185.023V246.559H492.785V185.023H431.249ZM492.785 246.559V308.101H554.321V246.559H492.785ZM554.321 308.101V431.174H615.863V308.101H554.321ZM554.321 431.174H492.785V492.716H554.321V431.174ZM492.785 492.716H431.249V554.252H492.785V492.716Z" fill="white"/>
</svg>
