<svg width="739" height="739" viewBox="0 0 739 739" fill="none" xmlns="http://www.w3.org/2000/svg">
<path fill-rule="evenodd" clip-rule="evenodd" d="M184.832 0V61.536H554.059V0H184.832ZM554.059 61.536V123.077H615.6V61.536H554.059ZM615.6 123.077V184.613H677.136V123.077H615.6ZM677.136 184.613V553.84H738.672V184.613H677.136ZM677.136 553.84H615.6V615.381H677.136V553.84ZM615.6 615.381H554.059V676.917H615.6V615.381ZM554.059 676.917H184.832V738.459H554.059V676.917ZM184.832 676.917V615.381H123.291V676.917H184.832ZM123.291 615.381V553.84H61.7548V615.381H123.291ZM61.7548 553.84V184.613H0.21875V553.84H61.7548ZM61.7548 184.613H123.291V123.077H61.7548V184.613ZM123.291 123.077H184.832V61.536H123.291V123.077ZM307.904 123.077V184.613H246.363V307.692H307.904V369.228H246.363V430.769H184.827V553.843H554.053V430.769H492.517V369.228H430.976V307.692H492.517V184.613H430.976V123.077H307.904Z" fill="white"/>
</svg>
