<svg width="740" height="739" viewBox="0 0 740 739" fill="none" xmlns="http://www.w3.org/2000/svg">
<path fill-rule="evenodd" clip-rule="evenodd" d="M185.579 0.197876V61.7392H554.819V0.197876H185.579ZM554.819 61.7392V123.275H616.355V61.7392H554.819ZM616.355 123.275V184.811H677.891V123.275H616.355ZM677.891 184.811V554.051H739.432V184.811H677.891ZM677.891 554.051H616.355V615.587H677.891V554.051ZM616.355 615.587H554.819V677.123H616.355V615.587ZM554.819 677.123H185.579V738.665H554.819V677.123ZM185.579 677.123V615.587H124.043V677.123H185.579ZM124.043 615.587V554.051H62.5013V615.587H124.043ZM62.5013 554.051V184.811H0.965332V554.051H62.5013ZM62.5013 184.811H124.043V123.275H62.5013V184.811ZM124.043 123.275H185.579V61.7392H124.043V123.275ZM247.121 123.275V184.811H370.195V123.275H247.121ZM370.195 184.811V307.89H308.659V430.969H247.123V492.505H308.659V554.046H370.195V430.967H431.736V307.889H493.272V246.353H431.736V184.811H370.195ZM493.273 307.89V554.05H554.815V307.89H493.273ZM493.273 554.05H370.195V615.586H493.273V554.05ZM247.127 430.971V184.811H185.585V430.971H247.127Z" fill="white"/>
</svg>
