<svg width="739" height="739" viewBox="0 0 739 739" fill="none" xmlns="http://www.w3.org/2000/svg">
<path fill-rule="evenodd" clip-rule="evenodd" d="M184.885 0.411499V61.9475H554.112V0.411499H184.885ZM554.112 61.9475V123.484H615.653V61.9475H554.112ZM615.653 123.484V185.025H677.189V123.484H615.653ZM677.189 185.025V554.252H738.725V185.025H677.189ZM677.189 554.252H615.653V615.793H677.189V554.252ZM615.653 615.793H554.112V677.329H615.653V615.793ZM554.112 677.329H184.885V738.865H554.112V677.329ZM184.885 677.329V615.793H123.349V677.329H184.885ZM123.349 615.793V554.252H61.808V615.793H123.349ZM61.808 554.252V185.025H0.271973V554.252H61.808ZM61.808 185.025H123.349V123.484H61.808V185.025ZM123.349 123.484H184.885V61.9475H123.349V123.484ZM615.656 185.025H554.115V246.561H492.579V308.102H431.037V369.638H369.501V431.174H307.965V369.638H246.424V308.102H184.888V431.176H246.424V492.717H307.965V554.253H369.501V492.717H431.037V431.176H492.579V369.639H554.115V308.104H615.656V185.025Z" fill="white"/>
</svg>
